<svg xmlns="http://www.w3.org/2000/svg" xmlns:xlink="http://www.w3.org/1999/xlink" width="500" zoomAndPan="magnify" viewBox="0 0 375 374.999991" height="500" preserveAspectRatio="xMidYMid meet" version="1.0"><defs><g/></defs><g fill="#000000" fill-opacity="1"><g transform="translate(22.961714, 232.825091)"><g><path d="M 16.140625 -21.296875 C 15.203125 -20.835938 14.171875 -20.476562 13.046875 -20.21875 C 14.171875 -19.957031 15.203125 -19.597656 16.140625 -19.140625 L 27.03125 -13.53125 C 27.488281 -13.3125 27.816406 -13.03125 28.015625 -12.6875 C 28.210938 -12.351562 28.3125 -11.984375 28.3125 -11.578125 L 28.3125 -6.296875 L 4.53125 -18.71875 L 4.53125 -21.71875 L 28.3125 -34.109375 L 28.3125 -28.828125 C 28.3125 -28.429688 28.210938 -28.066406 28.015625 -27.734375 C 27.816406 -27.398438 27.488281 -27.113281 27.03125 -26.875 Z M 16.140625 -21.296875 "/></g></g></g><g fill="#000000" fill-opacity="1"><g transform="translate(57.754829, 232.825091)"><g><path d="M 17.28125 -31.265625 C 19.5625 -31.265625 21.632812 -30.894531 23.5 -30.15625 C 25.375 -29.414062 26.972656 -28.363281 28.296875 -27 C 29.628906 -25.632812 30.65625 -23.972656 31.375 -22.015625 C 32.09375 -20.054688 32.453125 -17.867188 32.453125 -15.453125 C 32.453125 -13.015625 32.09375 -10.8125 31.375 -8.84375 C 30.65625 -6.882812 29.628906 -5.210938 28.296875 -3.828125 C 26.972656 -2.453125 25.375 -1.394531 23.5 -0.65625 C 21.632812 0.0820312 19.5625 0.453125 17.28125 0.453125 C 14.976562 0.453125 12.882812 0.0820312 11 -0.65625 C 9.125 -1.394531 7.519531 -2.453125 6.1875 -3.828125 C 4.863281 -5.210938 3.835938 -6.882812 3.109375 -8.84375 C 2.378906 -10.8125 2.015625 -13.015625 2.015625 -15.453125 C 2.015625 -17.867188 2.378906 -20.054688 3.109375 -22.015625 C 3.835938 -23.972656 4.863281 -25.632812 6.1875 -27 C 7.519531 -28.363281 9.125 -29.414062 11 -30.15625 C 12.882812 -30.894531 14.976562 -31.265625 17.28125 -31.265625 Z M 17.28125 -5.25 C 19.84375 -5.25 21.738281 -6.109375 22.96875 -7.828125 C 24.195312 -9.546875 24.8125 -12.066406 24.8125 -15.390625 C 24.8125 -18.710938 24.195312 -21.242188 22.96875 -22.984375 C 21.738281 -24.722656 19.84375 -25.59375 17.28125 -25.59375 C 14.675781 -25.59375 12.75 -24.71875 11.5 -22.96875 C 10.25 -21.21875 9.625 -18.691406 9.625 -15.390625 C 9.625 -12.085938 10.25 -9.570312 11.5 -7.84375 C 12.75 -6.113281 14.675781 -5.25 17.28125 -5.25 Z M 17.28125 -5.25 "/></g></g></g><g fill="#000000" fill-opacity="1"><g transform="translate(92.218011, 232.825091)"><g><path d="M 22.984375 -22.921875 C 22.140625 -23.941406 21.222656 -24.660156 20.234375 -25.078125 C 19.242188 -25.492188 18.179688 -25.703125 17.046875 -25.703125 C 15.921875 -25.703125 14.90625 -25.492188 14 -25.078125 C 13.101562 -24.660156 12.332031 -24.023438 11.6875 -23.171875 C 11.050781 -22.328125 10.5625 -21.25 10.21875 -19.9375 C 9.882812 -18.625 9.71875 -17.078125 9.71875 -15.296875 C 9.71875 -13.492188 9.863281 -11.96875 10.15625 -10.71875 C 10.445312 -9.46875 10.859375 -8.445312 11.390625 -7.65625 C 11.929688 -6.875 12.59375 -6.304688 13.375 -5.953125 C 14.15625 -5.609375 15.023438 -5.4375 15.984375 -5.4375 C 17.523438 -5.4375 18.835938 -5.753906 19.921875 -6.390625 C 21.003906 -7.023438 22.023438 -7.9375 22.984375 -9.125 Z M 30.390625 -44.578125 L 30.390625 0 L 25.859375 0 C 24.878906 0 24.257812 -0.445312 24 -1.34375 L 23.375 -4.3125 C 22.132812 -2.894531 20.707031 -1.742188 19.09375 -0.859375 C 17.488281 0.015625 15.613281 0.453125 13.46875 0.453125 C 11.789062 0.453125 10.25 0.101562 8.84375 -0.59375 C 7.445312 -1.300781 6.242188 -2.316406 5.234375 -3.640625 C 4.222656 -4.972656 3.441406 -6.617188 2.890625 -8.578125 C 2.335938 -10.535156 2.0625 -12.773438 2.0625 -15.296875 C 2.0625 -17.578125 2.375 -19.695312 3 -21.65625 C 3.625 -23.613281 4.515625 -25.3125 5.671875 -26.75 C 6.828125 -28.195312 8.210938 -29.320312 9.828125 -30.125 C 11.453125 -30.9375 13.273438 -31.34375 15.296875 -31.34375 C 17.015625 -31.34375 18.484375 -31.070312 19.703125 -30.53125 C 20.929688 -30 22.023438 -29.269531 22.984375 -28.34375 L 22.984375 -44.578125 Z M 30.390625 -44.578125 "/></g></g></g><g fill="#000000" fill-opacity="1"><g transform="translate(126.261275, 232.825091)"><g><path d="M 30.1875 -30.78125 L 30.1875 0 L 25.65625 0 C 24.675781 0 24.054688 -0.445312 23.796875 -1.34375 L 23.28125 -3.8125 C 22.019531 -2.53125 20.628906 -1.492188 19.109375 -0.703125 C 17.585938 0.0859375 15.796875 0.484375 13.734375 0.484375 C 12.054688 0.484375 10.570312 0.195312 9.28125 -0.375 C 7.988281 -0.945312 6.898438 -1.75 6.015625 -2.78125 C 5.140625 -3.820312 4.476562 -5.054688 4.03125 -6.484375 C 3.582031 -7.921875 3.359375 -9.5 3.359375 -11.21875 L 3.359375 -30.78125 L 10.765625 -30.78125 L 10.765625 -11.21875 C 10.765625 -9.34375 11.195312 -7.890625 12.0625 -6.859375 C 12.9375 -5.828125 14.242188 -5.3125 15.984375 -5.3125 C 17.265625 -5.3125 18.460938 -5.59375 19.578125 -6.15625 C 20.703125 -6.726562 21.765625 -7.515625 22.765625 -8.515625 L 22.765625 -30.78125 Z M 14.25 -43.859375 C 15.070312 -43.859375 15.679688 -43.722656 16.078125 -43.453125 C 16.484375 -43.179688 16.828125 -42.785156 17.109375 -42.265625 L 21.390625 -34.984375 L 17.15625 -34.984375 C 16.601562 -34.984375 16.148438 -35.054688 15.796875 -35.203125 C 15.441406 -35.359375 15.085938 -35.632812 14.734375 -36.03125 L 7.328125 -43.859375 Z M 14.25 -43.859375 "/></g></g></g><g fill="#000000" fill-opacity="1"><g transform="translate(160.094586, 232.825091)"><g><path d="M 31.625 -30.78125 L 14.84375 8.453125 C 14.625 8.972656 14.335938 9.367188 13.984375 9.640625 C 13.640625 9.910156 13.109375 10.046875 12.390625 10.046875 L 6.875 10.046875 L 12.625 -2.3125 L 0.1875 -30.78125 L 6.6875 -30.78125 C 7.269531 -30.78125 7.722656 -30.640625 8.046875 -30.359375 C 8.378906 -30.078125 8.628906 -29.757812 8.796875 -29.40625 L 15.328125 -13.4375 C 15.546875 -12.894531 15.726562 -12.351562 15.875 -11.8125 C 16.03125 -11.28125 16.175781 -10.734375 16.3125 -10.171875 C 16.5 -10.734375 16.679688 -11.285156 16.859375 -11.828125 C 17.035156 -12.378906 17.234375 -12.925781 17.453125 -13.46875 L 23.640625 -29.40625 C 23.796875 -29.800781 24.054688 -30.128906 24.421875 -30.390625 C 24.796875 -30.648438 25.21875 -30.78125 25.6875 -30.78125 Z M 31.625 -30.78125 "/></g></g></g><g fill="#000000" fill-opacity="1"><g transform="translate(191.738333, 232.825091)"><g><path d="M 23.484375 -18.9375 C 23.484375 -19.894531 23.347656 -20.796875 23.078125 -21.640625 C 22.816406 -22.492188 22.414062 -23.238281 21.875 -23.875 C 21.332031 -24.519531 20.644531 -25.023438 19.8125 -25.390625 C 18.976562 -25.765625 18.015625 -25.953125 16.921875 -25.953125 C 14.773438 -25.953125 13.085938 -25.34375 11.859375 -24.125 C 10.628906 -22.90625 9.847656 -21.175781 9.515625 -18.9375 Z M 9.359375 -14.453125 C 9.484375 -12.878906 9.765625 -11.515625 10.203125 -10.359375 C 10.640625 -9.210938 11.21875 -8.265625 11.9375 -7.515625 C 12.65625 -6.765625 13.507812 -6.203125 14.5 -5.828125 C 15.488281 -5.460938 16.585938 -5.28125 17.796875 -5.28125 C 18.992188 -5.28125 20.023438 -5.421875 20.890625 -5.703125 C 21.765625 -5.984375 22.523438 -6.289062 23.171875 -6.625 C 23.828125 -6.96875 24.398438 -7.28125 24.890625 -7.5625 C 25.378906 -7.84375 25.851562 -7.984375 26.3125 -7.984375 C 26.925781 -7.984375 27.382812 -7.753906 27.6875 -7.296875 L 29.8125 -4.59375 C 29 -3.632812 28.082031 -2.828125 27.0625 -2.171875 C 26.039062 -1.523438 24.972656 -1.003906 23.859375 -0.609375 C 22.753906 -0.222656 21.625 0.046875 20.46875 0.203125 C 19.320312 0.367188 18.207031 0.453125 17.125 0.453125 C 14.988281 0.453125 13 0.0976562 11.15625 -0.609375 C 9.320312 -1.328125 7.722656 -2.378906 6.359375 -3.765625 C 4.992188 -5.148438 3.921875 -6.867188 3.140625 -8.921875 C 2.367188 -10.972656 1.984375 -13.347656 1.984375 -16.046875 C 1.984375 -18.148438 2.320312 -20.125 3 -21.96875 C 3.675781 -23.820312 4.648438 -25.429688 5.921875 -26.796875 C 7.191406 -28.171875 8.738281 -29.257812 10.5625 -30.0625 C 12.394531 -30.863281 14.460938 -31.265625 16.765625 -31.265625 C 18.710938 -31.265625 20.503906 -30.953125 22.140625 -30.328125 C 23.773438 -29.710938 25.179688 -28.804688 26.359375 -27.609375 C 27.546875 -26.421875 28.472656 -24.960938 29.140625 -23.234375 C 29.816406 -21.503906 30.15625 -19.53125 30.15625 -17.3125 C 30.15625 -16.1875 30.035156 -15.425781 29.796875 -15.03125 C 29.554688 -14.644531 29.09375 -14.453125 28.40625 -14.453125 Z M 9.359375 -14.453125 "/></g></g></g><g fill="#000000" fill-opacity="1"><g transform="translate(223.772004, 232.825091)"><g><path d="M 3.65625 0 L 3.65625 -30.78125 L 8.1875 -30.78125 C 9.144531 -30.78125 9.773438 -30.332031 10.078125 -29.4375 L 10.5625 -27.15625 C 11.101562 -27.75 11.664062 -28.296875 12.25 -28.796875 C 12.84375 -29.296875 13.472656 -29.722656 14.140625 -30.078125 C 14.816406 -30.441406 15.535156 -30.726562 16.296875 -30.9375 C 17.066406 -31.15625 17.914062 -31.265625 18.84375 -31.265625 C 20.78125 -31.265625 22.375 -30.738281 23.625 -29.6875 C 24.875 -28.632812 25.8125 -27.238281 26.4375 -25.5 C 26.914062 -26.519531 27.515625 -27.394531 28.234375 -28.125 C 28.953125 -28.851562 29.738281 -29.445312 30.59375 -29.90625 C 31.457031 -30.363281 32.375 -30.703125 33.34375 -30.921875 C 34.3125 -31.148438 35.285156 -31.265625 36.265625 -31.265625 C 37.960938 -31.265625 39.472656 -31.003906 40.796875 -30.484375 C 42.117188 -29.960938 43.226562 -29.203125 44.125 -28.203125 C 45.03125 -27.203125 45.71875 -25.976562 46.1875 -24.53125 C 46.65625 -23.09375 46.890625 -21.445312 46.890625 -19.59375 L 46.890625 0 L 39.484375 0 L 39.484375 -19.59375 C 39.484375 -21.550781 39.050781 -23.023438 38.1875 -24.015625 C 37.332031 -25.003906 36.070312 -25.5 34.40625 -25.5 C 33.644531 -25.5 32.9375 -25.367188 32.28125 -25.109375 C 31.632812 -24.847656 31.066406 -24.472656 30.578125 -23.984375 C 30.085938 -23.492188 29.703125 -22.878906 29.421875 -22.140625 C 29.148438 -21.398438 29.015625 -20.550781 29.015625 -19.59375 L 29.015625 0 L 21.5625 0 L 21.5625 -19.59375 C 21.5625 -21.65625 21.144531 -23.15625 20.3125 -24.09375 C 19.488281 -25.03125 18.28125 -25.5 16.6875 -25.5 C 15.601562 -25.5 14.59375 -25.234375 13.65625 -24.703125 C 12.726562 -24.171875 11.863281 -23.445312 11.0625 -22.53125 L 11.0625 0 Z M 3.65625 0 "/></g></g></g><g fill="#000000" fill-opacity="1"><g transform="translate(274.012067, 232.825091)"><g><path d="M 11.34375 -30.78125 L 11.34375 0 L 3.9375 0 L 3.9375 -30.78125 Z M 18.234375 -43.859375 L 10.828125 -36.03125 C 10.453125 -35.632812 10.085938 -35.359375 9.734375 -35.203125 C 9.378906 -35.054688 8.925781 -34.984375 8.375 -34.984375 L 3.921875 -34.984375 L 8.1875 -42.265625 C 8.488281 -42.785156 8.835938 -43.179688 9.234375 -43.453125 C 9.640625 -43.722656 10.242188 -43.859375 11.046875 -43.859375 Z M 18.234375 -43.859375 "/></g></g></g><g fill="#000000" fill-opacity="1"><g transform="translate(289.279033, 232.825091)"><g><path d="M 8.8125 0.09375 C 8.476562 1.007812 7.9375 1.695312 7.1875 2.15625 C 6.4375 2.613281 5.671875 2.84375 4.890625 2.84375 L 1.734375 2.84375 L 19.265625 -41.96875 C 19.578125 -42.8125 20.0625 -43.457031 20.71875 -43.90625 C 21.382812 -44.351562 22.160156 -44.578125 23.046875 -44.578125 L 26.21875 -44.578125 Z M 8.8125 0.09375 "/></g></g></g><g fill="#000000" fill-opacity="1"><g transform="translate(317.233514, 232.825091)"><g><path d="M 30.265625 -21.71875 L 30.265625 -18.71875 L 6.484375 -6.296875 L 6.484375 -11.578125 C 6.484375 -11.984375 6.582031 -12.351562 6.78125 -12.6875 C 6.976562 -13.03125 7.304688 -13.3125 7.765625 -13.53125 L 18.65625 -19.140625 C 19.59375 -19.597656 20.625 -19.957031 21.75 -20.21875 C 20.625 -20.476562 19.59375 -20.835938 18.65625 -21.296875 L 7.765625 -26.875 C 7.304688 -27.113281 6.976562 -27.398438 6.78125 -27.734375 C 6.582031 -28.066406 6.484375 -28.429688 6.484375 -28.828125 L 6.484375 -34.109375 Z M 30.265625 -21.71875 "/></g></g></g></svg>