<svg id="Layer_1" data-name="Layer 1" xmlns="http://www.w3.org/2000/svg" xmlns:xlink="http://www.w3.org/1999/xlink" viewBox="0 0 379.36 324.85" width="406" height="306" class="illustration styles_illustrationTablet__1DWOa"><defs><linearGradient id="linear-gradient" x1="3202.05" y1="659.23" x2="3373.14" y2="795.88" gradientTransform="matrix(-1.07, -0.1, 0, 1, 3769.86, -194.26)" gradientUnits="userSpaceOnUse"><stop offset="0" stop-color="#fff"></stop><stop offset="1" stop-color="#cbcbcb"></stop></linearGradient><linearGradient id="linear-gradient-2" x1="3286.2" y1="604.81" x2="3286.11" y2="616.25" gradientTransform="matrix(-1.07, -0.1, 0, 1, 3741.22, -228.26)" xlink:href="#linear-gradient"></linearGradient><linearGradient id="linear-gradient-3" x1="3297.92" y1="606.17" x2="3298.55" y2="614.55" gradientTransform="matrix(-0.45, -0.97, -0.86, 0.5, 2259.48, 2975.32)" xlink:href="#linear-gradient"></linearGradient><linearGradient id="linear-gradient-4" x1="4274.39" y1="422.64" x2="4158.9" y2="499.42" gradientTransform="matrix(0.91, -0.41, -0.41, -0.91, -3548.42, 2379.55)" gradientUnits="userSpaceOnUse"><stop offset="0.01"></stop><stop offset="0.13" stop-opacity="0.69"></stop><stop offset="0.25" stop-opacity="0.32"></stop><stop offset="1" stop-opacity="0"></stop></linearGradient></defs><title>30</title><path d="M272.41,35.09c81-10.21,108.78,54.09,113.41,76.69,10.78,52.72-3.77,72.56-4.8,92.67-1.1,21.64,27,36.09,27,57.78a89.88,89.88,0,0,1-25.77,62.49c-23.05,23.24-57.15,32-89.83,33.71s-65.47-2.56-98.16-.8C163.31,359.29,4.57,328.72,31.76,185c7.41-39.22,70.82-49.52,104.12-75.82C162.61,88,186.92,45.88,272.41,35.09Z" transform="translate(-28.64 -34)" fill="#fff" opacity="0.18" style="isolation: isolate;"></path><ellipse cx="226.95" cy="306.24" rx="38.4" ry="144.15" transform="translate(-116.44 487.22) rotate(-87.79)" fill="#fff" opacity="0.35" style="isolation: isolate;"></ellipse><path d="M203.3,72.94V283.6c0,9.1,7.88,17.26,17.59,18.21l94,9.25c9.7.95,17.58-5.65,17.58-14.76V85.64c0-9.11-7.88-17.27-17.58-18.22l-94-9.25C211.18,57.22,203.3,63.83,203.3,72.94Zm9,1c0-5.61,4.85-9.69,10.84-9.1l13.24,1.31v1.24a7.61,7.61,0,0,0,6.94,7.19l50.5,5c3.83.37,6.93-2.23,6.93-5.82V72.52l13.68,1.34c6,.59,10.84,5.62,10.84,11.23V295.16c0,5.61-4.85,9.68-10.84,9.09l-91.29-9c-6-.59-10.84-5.61-10.84-11.23Z" transform="translate(-28.64 -34)" fill="#fff"></path><path d="M198.88,76.83V287.49c0,9.1,7.88,17.26,17.59,18.21l94,9.25c9.7.95,17.58-5.65,17.58-14.76V89.53c0-9.11-7.88-17.27-17.58-18.22l-94-9.24C206.76,61.11,198.88,67.72,198.88,76.83Zm9,1c0-5.61,4.85-9.69,10.84-9.1l13.24,1.31v1.24a7.61,7.61,0,0,0,6.94,7.19l50.5,5c3.83.37,6.93-2.23,6.93-5.82V76.41L310,77.75c6,.59,10.84,5.62,10.84,11.23V299.05c0,5.61-4.85,9.68-10.84,9.09l-91.29-9c-6-.59-10.84-5.61-10.84-11.23Z" transform="translate(-28.64 -34)" fill="#fff"></path><path d="M207.85,77.87V287.93c0,5.62,4.85,10.64,10.84,11.23l91.29,9c6,.59,10.84-3.48,10.84-9.09V89c0-5.61-4.85-10.64-10.84-11.23L296.3,76.41v1.25c0,3.59-3.1,6.19-6.93,5.82l-50.5-5a7.61,7.61,0,0,1-6.94-7.19V70.08l-13.24-1.31C212.7,68.18,207.85,72.26,207.85,77.87Z" transform="translate(-28.64 -34)" fill="none" stroke-miterlimit="10" stroke-width="0.64" stroke="url(#linear-gradient)"></path><path d="M207.85,77.87V287.93c0,5.62,4.85,10.64,10.84,11.23l91.29,9c6,.59,10.84-3.48,10.84-9.09V89c0-5.61-4.85-10.64-10.84-11.23L296.3,76.41v1.25c0,3.59-3.1,6.19-6.93,5.82l-50.5-5a7.61,7.61,0,0,1-6.94-7.19V70.08l-13.24-1.31C212.7,68.18,207.85,72.26,207.85,77.87Z" transform="translate(-28.64 -34)" fill="#fff"></path><path d="M320.82,89V299.05c0,5.61-4.85,9.68-10.84,9.1l-91-9h0l-.29,0c-6-.59-10.84-5.61-10.84-11.23V77.87c0-5.61,4.85-9.69,10.84-9.09l13.25,1.29v1.25a7.59,7.59,0,0,0,6.93,7.19l1,.1,49.49,4.87c3.83.37,6.94-2.23,6.94-5.82V76.4L310,77.76a11.8,11.8,0,0,1,3.19.76A11.6,11.6,0,0,1,320.82,89Z" transform="translate(-28.64 -34)" fill="#fff" opacity="0.18" style="isolation: isolate;"></path><path d="M320.82,89V299.05c0,5.61-4.85,9.68-10.84,9.1l-91-9h0c-4.4-1.73-7.6-5.89-7.6-10.46V78.67c0-5.62,4.85-9.69,10.83-9.1l9.73,1,3.52.34v1.26a7.37,7.37,0,0,0,4.41,6.48,7.68,7.68,0,0,0,2.52.7l50.5,5c3.83.37,6.94-2.24,6.94-5.82V77.2l13.34,1.32A11.6,11.6,0,0,1,320.82,89Z" transform="translate(-28.64 -34)" fill="#fff" opacity="0.18" style="isolation: isolate;"></path><polygon points="228.59 41.74 245.95 43.45 245.95 42.01 228.59 40.3 228.59 41.74" fill="url(#linear-gradient-2)"></polygon><ellipse cx="252.65" cy="74.37" rx="1.72" ry="1.94" transform="translate(32.31 220.96) rotate(-59.69)" fill="url(#linear-gradient-3)"></ellipse><g id="Q83r0t" opacity="0.19"><path d="M220.51,287.45a5.53,5.53,0,0,1-3.69-1.79c-.72-.78-1.41-1.6-2.15-2.36a4.7,4.7,0,0,0-5.29-1.48c-1.94.71-.61-.16-.66,2,0,1.11,0,2.22,0,3.33a4.7,4.7,0,0,1-5.21,4.74q-3-.21-6.06-.48a5.78,5.78,0,0,1-5.27-5.76c0-1.11,0-2.22,0-3.33a5.19,5.19,0,0,0-3.06-4.7,4.28,4.28,0,0,0-5.11.59c-.74.65-1.42,1.36-2.15,2-2.19,2-5.35,1.69-7.5-.65-1.49-1.62-3-3.25-4.44-4.9-2.17-2.44-2.16-5.57,0-7.67.69-.66,1.41-1.28,2.08-2a4.55,4.55,0,0,0,1.05-5.16,5.11,5.11,0,0,0-4.32-3.51c-1.08-.14-2.16-.16-3.24-.29a5.75,5.75,0,0,1-5.28-6.06c0-2,0-3.94,0-5.91a4.7,4.7,0,0,1,4.79-5c1.11,0,2.23.12,3.34.21a4.31,4.31,0,0,0,4.68-2.75c.83-1.9.37-3.85-1.26-5.67-.66-.74-1.34-1.46-2-2.21a5.29,5.29,0,0,1,0-7.35c1.58-1.55,3.19-3.06,4.85-4.5a5.17,5.17,0,0,1,7.2.68c.75.8,1.46,1.65,2.23,2.44a4.63,4.63,0,0,0,5.12,1.38,4.27,4.27,0,0,0,3-4.24c0-1,0-2.08,0-3.11.08-3.33,2.27-5.35,5.52-5.11l5.64.45a5.82,5.82,0,0,1,5.43,5.85c0,1,0,2,0,3a5.23,5.23,0,0,0,3,4.95,4.41,4.41,0,0,0,5.36-.72c.67-.63,1.32-1.27,2-1.89a5.19,5.19,0,0,1,7.43.59c1.55,1.66,3.08,3.35,4.59,5.05a5.31,5.31,0,0,1,0,7.51c-.73.71-1.51,1.37-2.23,2.09a4.44,4.44,0,0,0-1.06,4.87,5,5,0,0,0,4,3.64c1.14.22,2.3.24,3.45.35a5.3,5.3,0,0,1,5.06,5.47q.1,3.39,0,6.77c-.1,3.21-2.68,7.24-5.82,7-1-.07-6.49-1-7.23.9s.23,3.07,1.62,4.67c.72.83,1.5,1.62,2.22,2.45a5.34,5.34,0,0,1,0,7.52c-1.5,1.47-3,2.9-4.58,4.34C225.51,284.78,223.07,287.41,220.51,287.45Zm-41.79-38.82c0,12.41,9.66,23.18,21.71,24.15,9.8.08,18.31-6.69,18.3-19a22.9,22.9,0,0,0-21.24-22.95C185.42,229.82,178.74,236.24,178.72,248.63Z" transform="translate(-28.64 -34)" fill="#020202"></path></g><g id="Q83r0t-2" data-name="Q83r0t"><path d="M220.07,286.78a5.47,5.47,0,0,1-3.69-1.78c-.72-.78-1.41-1.6-2.15-2.37a4.71,4.71,0,0,0-5.29-1.47,4.38,4.38,0,0,0-3,4.38c0,1.11,0,2.22,0,3.33a4.7,4.7,0,0,1-5.21,4.74q-3-.21-6.06-.48a5.78,5.78,0,0,1-5.27-5.76c0-1.12,0-2.22,0-3.33a5.19,5.19,0,0,0-3.06-4.7,4.27,4.27,0,0,0-5.11.59c-.74.65-1.42,1.36-2.15,2-2.19,2-5.35,1.69-7.5-.65-1.49-1.63-3-3.25-4.44-4.9-2.17-2.44-2.16-5.57,0-7.67.69-.66,1.41-1.28,2.08-2a4.53,4.53,0,0,0,1.05-5.16,5.11,5.11,0,0,0-4.32-3.51c-1.08-.14-2.16-.16-3.23-.29a5.75,5.75,0,0,1-5.29-6.06c0-2,0-3.94,0-5.91a4.7,4.7,0,0,1,4.79-5c1.11,0,2.23.12,3.34.21a4.31,4.31,0,0,0,4.68-2.75c.83-1.9.37-3.85-1.26-5.67-.66-.74-1.34-1.46-2-2.21a5.31,5.31,0,0,1,0-7.36c1.58-1.54,3.19-3.05,4.85-4.5a5.18,5.18,0,0,1,7.2.69c.75.8,1.46,1.65,2.23,2.44a4.63,4.63,0,0,0,5.12,1.38,4.27,4.27,0,0,0,3-4.24c0-1,0-2.08,0-3.11.08-3.33,2.27-5.36,5.52-5.11,1.88.15,3.76.29,5.64.45a5.82,5.82,0,0,1,5.43,5.85c0,1,0,2,0,3a5.23,5.23,0,0,0,3,4.95,4.41,4.41,0,0,0,5.36-.72c.67-.63,1.32-1.27,2-1.89a5.19,5.19,0,0,1,7.43.59c1.55,1.66,3.08,3.35,4.59,5a5.31,5.31,0,0,1,0,7.51c-.73.71-1.5,1.37-2.23,2.09a4.44,4.44,0,0,0-1.06,4.87,5,5,0,0,0,4,3.64c1.14.22,2.3.23,3.45.35a5.3,5.3,0,0,1,5.06,5.47q.11,3.39,0,6.77c-.1,3.21-2.08,5-5.22,4.75-1-.07-2-.19-3-.22a4.12,4.12,0,0,0-4.19,2.84,4.82,4.82,0,0,0,1,5.23c.72.83,1.5,1.62,2.22,2.44a5.35,5.35,0,0,1,0,7.53c-1.5,1.47-3,2.9-4.58,4.34A4.7,4.7,0,0,1,220.07,286.78Zm-44.13-36.45c0,12.4,9.67,23.18,21.71,24.15s21.8-8.32,21.8-20.66-9.75-23.11-21.69-24.08S176,237.94,175.94,250.33Z" transform="translate(-28.64 -34)" fill="#fff"></path></g><g id="Q83r0t-3" data-name="Q83r0t" opacity="0.19"><path d="M260.09,243.57a2.78,2.78,0,0,1-1.88-.91c-.37-.4-.72-.82-1.09-1.21a2.42,2.42,0,0,0-2.7-.75c-1,.36-.31-.08-.34,1,0,.57,0,1.14,0,1.7a2.41,2.41,0,0,1-2.66,2.42l-3.09-.25a3,3,0,0,1-2.69-2.94c0-.56,0-1.13,0-1.7a2.65,2.65,0,0,0-1.56-2.39,2.18,2.18,0,0,0-2.61.3c-.37.33-.72.69-1.09,1a2.66,2.66,0,0,1-3.83-.33c-.76-.83-1.52-1.66-2.27-2.5a2.72,2.72,0,0,1,0-3.91l1.06-1a2.32,2.32,0,0,0,.53-2.63,2.6,2.6,0,0,0-2.2-1.8c-.55-.07-1.1-.08-1.65-.14a3,3,0,0,1-2.7-3.1v-3a2.4,2.4,0,0,1,2.45-2.54c.56,0,1.13.06,1.7.11a2.2,2.2,0,0,0,2.39-1.4,2.58,2.58,0,0,0-.65-2.89c-.33-.38-.68-.75-1-1.13a2.7,2.7,0,0,1,0-3.75c.8-.79,1.63-1.56,2.47-2.3a2.65,2.65,0,0,1,3.67.35c.39.41.75.84,1.14,1.24a2.35,2.35,0,0,0,2.61.71,2.17,2.17,0,0,0,1.54-2.16c0-.53,0-1.06,0-1.59a2.46,2.46,0,0,1,2.81-2.6l2.88.22a3,3,0,0,1,2.77,3c0,.51,0,1,0,1.53a2.71,2.71,0,0,0,1.53,2.53,2.25,2.25,0,0,0,2.74-.37c.34-.32.67-.65,1-1a2.64,2.64,0,0,1,3.79.3c.79.85,1.58,1.7,2.35,2.57a2.71,2.71,0,0,1,0,3.83c-.37.37-.76.7-1.13,1.07a2.24,2.24,0,0,0-.54,2.48,2.55,2.55,0,0,0,2,1.86c.58.11,1.17.12,1.75.18a2.69,2.69,0,0,1,2.58,2.79q.06,1.72,0,3.45c-.05,1.64-1.36,3.69-3,3.59-.52,0-3.32-.5-3.7.45s.12,1.57.83,2.39c.37.42.77.82,1.14,1.24a2.74,2.74,0,0,1,0,3.84c-.77.75-1.56,1.48-2.34,2.21C262.64,242.21,261.4,243.55,260.09,243.57Zm-21.31-19.8a12.37,12.37,0,0,0,11.07,12.32c5,0,9.34-3.41,9.34-9.71a11.69,11.69,0,0,0-10.84-11.7C242.2,214.18,238.79,217.45,238.78,223.77Z" transform="translate(-28.64 -34)" fill="#020202"></path></g><g id="Q83r0t-4" data-name="Q83r0t"><path d="M259.87,243.23a2.74,2.74,0,0,1-1.88-.91c-.37-.4-.72-.81-1.1-1.2a2.42,2.42,0,0,0-2.7-.76,2.24,2.24,0,0,0-1.53,2.24c0,.56,0,1.13,0,1.69a2.39,2.39,0,0,1-2.66,2.42l-3.09-.24a2.94,2.94,0,0,1-2.68-2.94c0-.57,0-1.13,0-1.7a2.68,2.68,0,0,0-1.56-2.4,2.18,2.18,0,0,0-2.6.31c-.38.33-.73.69-1.1,1a2.66,2.66,0,0,1-3.83-.34c-.76-.82-1.52-1.65-2.26-2.5a2.72,2.72,0,0,1,0-3.91c.35-.33.71-.65,1.06-1a2.32,2.32,0,0,0,.53-2.64,2.59,2.59,0,0,0-2.2-1.79c-.55-.07-1.1-.08-1.65-.14a3,3,0,0,1-2.7-3.1c0-1,0-2,0-3a2.39,2.39,0,0,1,2.44-2.54c.56,0,1.13.06,1.7.1a2.2,2.2,0,0,0,2.39-1.39,2.61,2.61,0,0,0-.64-2.9c-.34-.37-.69-.74-1-1.13a2.7,2.7,0,0,1,0-3.75c.81-.79,1.63-1.55,2.48-2.29a2.64,2.64,0,0,1,3.67.35c.38.41.74.84,1.13,1.24a2.35,2.35,0,0,0,2.61.7,2.17,2.17,0,0,0,1.55-2.16c0-.52,0-1.06,0-1.58a2.48,2.48,0,0,1,2.82-2.61l2.87.23a3,3,0,0,1,2.77,3c0,.52,0,1,0,1.54a2.66,2.66,0,0,0,1.52,2.52,2.25,2.25,0,0,0,2.74-.36c.34-.32.67-.65,1-1a2.64,2.64,0,0,1,3.78.3c.8.85,1.58,1.71,2.35,2.58a2.72,2.72,0,0,1,0,3.83c-.38.36-.77.7-1.14,1.06a2.28,2.28,0,0,0-.54,2.49,2.56,2.56,0,0,0,2,1.86,17.19,17.19,0,0,0,1.76.17,2.71,2.71,0,0,1,2.58,2.8q0,1.72,0,3.45a2.3,2.3,0,0,1-2.67,2.42c-.51,0-1-.1-1.54-.11a2.1,2.1,0,0,0-2.14,1.45,2.46,2.46,0,0,0,.51,2.66c.37.43.77.83,1.14,1.25a2.73,2.73,0,0,1,0,3.84c-.77.75-1.56,1.48-2.34,2.21A2.41,2.41,0,0,1,259.87,243.23Zm-22.51-18.59A12.38,12.38,0,0,0,248.43,237a10.28,10.28,0,0,0,11.12-10.54,12.42,12.42,0,0,0-11.06-12.28A10.23,10.23,0,0,0,237.36,224.64Z" transform="translate(-28.64 -34)" fill="#fff"></path></g><polygon points="341.67 170.55 253.61 162.43 253.61 100.16 341.67 108.28 341.67 170.55" fill="#fff"></polygon><polygon points="208.72 133.53 120.66 125.41 120.66 63.14 208.72 71.27 208.72 133.53" fill="#fff"></polygon><polygon points="312.07 128.4 224.01 120.27 224.01 58.01 312.07 66.13 312.07 128.4" fill="none" stroke="#fff" stroke-miterlimit="10" stroke-width="1.06"></polygon><path d="M100.64,171.34a7.25,7.25,0,0,0-4.46-3.57c-3.84-1-7.3,1.42-9.26,4.55-1.15,1.83-1.91,4-3.57,5.37a13.85,13.85,0,0,1-5,2.22c-4.19,1.3-8.29,3.33-11.16,6.65a6.54,6.54,0,0,0-1.73,3.33c-.23,1.82.79,3.66.44,5.46-.39,2-2.32,3.31-3.42,5a7.54,7.54,0,0,0,.39,8.29,9.16,9.16,0,0,0,7.69,3.55,11.69,11.69,0,0,0,7.8-3.64c4.32-4.43,5.45-11.61,10.59-15.06,1.4-.94,3.12-1.65,3.81-3.18.49-1.08.33-2.33.53-3.49a5.91,5.91,0,0,1,3.62-4.48c3-1.15,6.18-.13,7.36-4a4.1,4.1,0,0,0-1.56-4.58,5.86,5.86,0,0,1-1-.65,4.19,4.19,0,0,1-.81-1.41C100.76,171.57,100.7,171.46,100.64,171.34Z" transform="translate(-28.64 -34)" fill="#fc682d"></path><path d="M125.87,191.79l-.11-.09.34.11Z" transform="translate(-28.64 -34)" fill="#fff"></path><path d="M125.33,264.27a9.49,9.49,0,0,0,1.24,3.94,6.85,6.85,0,0,0,3.27,2.37,11.66,11.66,0,0,0,8.67-.21,1.74,1.74,0,0,0,.92-.72,1.44,1.44,0,0,0,.07-.87,6.38,6.38,0,0,0-2.74-3.75,14.41,14.41,0,0,1-3.52-3.16c-1.64-2.5-1.53-9.67-6.38-7.93C122.8,255.4,124.85,261.34,125.33,264.27Z" transform="translate(-28.64 -34)" fill="#ffbbab"></path><path d="M97.65,231.77a96.13,96.13,0,0,1,11.57-1.87c6.82-.67,11.81,1,15.14,7.24,3,5.68,6.13,11.42,7.72,17.66.37,1.47.64,3.12-.13,4.43-1.13,1.93-4,2.08-6,.92s-3.08-3.2-4.23-5.13c-2-3.26-5.41-11.3-9.39-11.27-5.31,0-10.55,3.74-15.75,4.71a2,2,0,0,1-1.6-.16c-.34-.26-3.83.17-4-.25-1.17-4,1.49-9.05,1.32-13.24a2.29,2.29,0,0,1,.18-1.25,2.45,2.45,0,0,1,1.58-.93C95.31,232.33,96.48,232,97.65,231.77Z" transform="translate(-28.64 -34)" fill="#282328"></path><path d="M125.22,269.14s-.49,1.83.5,2.74,10.66,5.4,16.15.16-8.82-4.06-8.82-4.06Z" transform="translate(-28.64 -34)" fill="#fff"></path><path d="M125.07,265a1.3,1.3,0,0,1,1.67.22,5.31,5.31,0,0,0,5,1.14c1.91-.71,2.42-3.08,3.4-3.21s6.74,3.67,7.27,5.54-2,3.61-4.89,4.16-9.86-.68-11.32-2.07A6.36,6.36,0,0,1,125.07,265Z" transform="translate(-28.64 -34)" fill="#fff"></path><path d="M112.17,279.22a9.58,9.58,0,0,0-.34,4.11,6.78,6.78,0,0,0,2.13,3.43,11.63,11.63,0,0,0,8.1,3.09,1.68,1.68,0,0,0,1.12-.31,1.5,1.5,0,0,0,.4-.78,6.42,6.42,0,0,0-1.12-4.51,14.32,14.32,0,0,1-2-4.26c-.57-2.93,2.25-9.53-2.9-9.75C113.2,270,112.85,276.32,112.17,279.22Z" transform="translate(-28.64 -34)" fill="#ffbbab"></path><path d="M98.89,238.65a96.33,96.33,0,0,1,11.41,2.65c6.57,2,10.54,5.44,11.27,12.45.67,6.4,1.34,12.89.44,19.26-.21,1.5-.59,3.13-1.79,4.05-1.78,1.36-4.53.39-5.87-1.41s-1.64-4.13-2-6.35c-.56-3.76-.72-12.51-4.41-14-6.27-2.52-13.5.65-19.51-2.68a29.17,29.17,0,0,1-6-4.09,12.06,12.06,0,0,1-3.68-6.13,13,13,0,0,1-.15-3.79,15.42,15.42,0,0,1,.5-3.1c.36-1.17.55-1,1.75-.83,2,.29,4,.72,6,1.19C90.93,236.82,94.86,238,98.89,238.65Z" transform="translate(-28.64 -34)" fill="#473f47"></path><path d="M110.23,283.68s-1.15,1.51-.58,2.73,7.81,9,14.88,6.27-6.61-7.11-6.61-7.11Z" transform="translate(-28.64 -34)" fill="#fff"></path><path d="M111.65,279.82a1.29,1.29,0,0,1,1.46.84,5.3,5.3,0,0,0,4.21,2.95c2,.07,3.41-1.93,4.36-1.68s4.85,6,4.63,7.89-3.19,2.59-6.1,2-8.87-4.37-9.69-6.21A6.35,6.35,0,0,1,111.65,279.82Z" transform="translate(-28.64 -34)" fill="#fff"></path><path d="M118.24,216.35c-.28,1.56-.95,2.88-2.38,3.17a2.08,2.08,0,0,1-.36,0c-2.58.2-5.66-2.11-7.76-4.06a32.69,32.69,0,0,1-2.48-2.57l2-16.86,10.75,14A19.47,19.47,0,0,1,118.24,216.35Z" transform="translate(-28.64 -34)" fill="#fff"></path><path d="M129,213.22a24.44,24.44,0,0,1-6.59,5.15,11.91,11.91,0,0,1-5.77,1.33,2,2,0,0,1-.76-.18,2.15,2.15,0,0,1-1-.87,6.12,6.12,0,0,1-1-3.66c.26-3.38,4.14-4.89,4.14-4.89s8.6-1.65,9.54-1.1c.51.3.88,1.52,1.12,2.58C128.88,212.46,129,213.22,129,213.22Z" transform="translate(-28.64 -34)" fill="#fff"></path><path d="M129,213.22a24.44,24.44,0,0,1-6.59,5.15,11.91,11.91,0,0,1-5.77,1.33,2,2,0,0,1-.76-.18,2.08,2.08,0,0,1-.36,0c-2.58.2-5.66-2.11-7.76-4.06l0,0,1.39-5a19.89,19.89,0,0,0,4.73,4.48,7.56,7.56,0,0,0,4.35,1.36,4.9,4.9,0,0,0,1.24-.22,40.27,40.27,0,0,0,9.21-4.55C128.88,212.46,129,213.22,129,213.22Z" transform="translate(-28.64 -34)" fill="#020202" opacity="0.1"></path><path d="M127.12,204.54a3.82,3.82,0,0,0-1.38,1.88,3.6,3.6,0,0,0,0,1.18,4.26,4.26,0,0,0,.22,1.06,4.33,4.33,0,0,0,.76,1.1l.7.81a1,1,0,0,0,.3.27.65.65,0,0,0,.74-.22,1.78,1.78,0,0,0,.33-.74c.41-1.4,1.55-3.64,1.31-5.11C129.83,203,128,203.75,127.12,204.54Z" transform="translate(-28.64 -34)" fill="#ffbbab"></path><path d="M107.84,215.47c-.1.78-.09,1.6-.19,2.39-.5,4.36-2.07,8.72-1.28,13.15a4.75,4.75,0,0,1,0,3,3.6,3.6,0,0,1-2,1.53c-4.09,1.64-8.6,1.75-13,1.84-3.31.07-8,.48-10.85-1.64-1.19-.9-1.46-2.34-1.7-3.78a66.66,66.66,0,0,1-.39-14c0-.61.06-1.22.1-1.83q.38-6.3,1.24-12.54c.43-3,1.06-6.27,3.31-8.32,3-2.72,8.32-4.13,12.27-4.38a13.3,13.3,0,0,1,3.83.25,16.2,16.2,0,0,1,4.94,2.37c1.81,1.17,3.42,2.18,4.13,4.19a26,26,0,0,1,1.31,7.16,24.65,24.65,0,0,1-.69,6.79c-.24,1.09-.66,2.16-.9,3.24C107.9,215.07,107.87,215.27,107.84,215.47Z" transform="translate(-28.64 -34)" fill="#fff"></path><path d="M87.11,238c-1.31.22-4.08-1.29-5-1.57-.56-.18-1-.53-1.61-.74-2.8-1.06-2.17-9.21-2.19-11.42-.06-5.85-.49-12,.13-17.75A19.58,19.58,0,0,1,80,200a7.63,7.63,0,0,1,4.9-4.28,2.18,2.18,0,0,1,1.29,0c1.71.66,1.73,3.6,1.86,5,.2,2.21.7,4.54,2.41,6.09,4.17,3.79,12.14,2.31,17.16,2.09a2.31,2.31,0,0,1,1.33.21,1.68,1.68,0,0,1,.48,2,9.48,9.48,0,0,1-1.16,1.86c-1.46,2.23-1.48,5.09-2.46,7.57a14.48,14.48,0,0,1-6.45,6.88,63.17,63.17,0,0,1-8.83,3.77,5.89,5.89,0,0,0-1.88,1,3.84,3.84,0,0,0-1.15,2.51c-.08.61.47,2.54.19,2.94A.78.78,0,0,1,87.11,238Z" transform="translate(-28.64 -34)" fill="#020202" opacity="0.1"></path><rect x="104.64" y="176.3" width="17.45" height="86.03" transform="translate(67.87 431.61) rotate(-148.75)" fill="#fff"></rect><rect x="109.78" y="187.95" width="7.46" height="62.24" rx="3.21" transform="translate(68.27 431.24) rotate(-148.75)" fill="url(#linear-gradient-4)"></rect><path d="M102.1,188a2.84,2.84,0,0,1-1.88.68,9.93,9.93,0,0,1-1.72-.17l-.32-.06a.36.36,0,0,0-.23,0,.33.33,0,0,0-.14.24,18.77,18.77,0,0,0-.47,3.42h0c0,.21,0,.42,0,.63a1.18,1.18,0,0,1-.14.64,1.08,1.08,0,0,1-.74.37,5.27,5.27,0,0,1-1.58.08,7,7,0,0,1-3-1.49,32.17,32.17,0,0,0,.39-5.88c-.07-2.54-.42-5.12.15-7.6a4.14,4.14,0,0,1,5.24-3.49,9.51,9.51,0,0,1,4.94,2,2,2,0,0,1,.58,1.6c.07,1,.11,2,.1,3s-.08,2.3-.2,3.45A3.91,3.91,0,0,1,102.1,188Z" transform="translate(-28.64 -34)" fill="#ffbbab"></path><path d="M98.5,188.53l-.32-.06a.36.36,0,0,0-.23,0,.33.33,0,0,0-.14.24,18.77,18.77,0,0,0-.47,3.42h0a4.63,4.63,0,0,1-2.59-5.24,19.34,19.34,0,0,0,3.73,1.61Z" transform="translate(-28.64 -34)" fill="#e0a194"></path><path d="M113.73,200.17l.38-.45c.16-.19.41-.41.63-.29s.21.45.4.59a.67.67,0,0,0,.34.1,18.87,18.87,0,0,1,3.16.49,1.75,1.75,0,0,1,1.35,1.21,2.38,2.38,0,0,1-.21,1.28,6.45,6.45,0,0,1-1.63,2.78,6.7,6.7,0,0,1-2.27,1.08,7.34,7.34,0,0,0-2,.85c-.81.4-1.46,1.09-2.26,1.53a2.17,2.17,0,0,1-2.8-3.27l1.33-1.58Z" transform="translate(-28.64 -34)" fill="#ffbbab"></path><rect x="81.02" y="195.4" width="12.53" height="29.5" rx="6.27" transform="translate(-72.69 -9.68) rotate(-12.7)" fill="#fff"></rect><path d="M93.92,209.85,108.53,204l4.56,6.62s-19.35,15.34-24.36,14-2.21-6.44-2.21-6.44S85.29,212.21,93.92,209.85Z" transform="translate(-28.64 -34)" fill="#fff"></path><path d="M98.63,179.23c-1.06.33-2.23.29-3.26.7s-1.93,1.58-1.46,2.59c-.38-.36-1.1,0-1.2.49a1.35,1.35,0,0,0,.72,1.3l-1.31,2a1.09,1.09,0,0,1-.44.46.88.88,0,0,1-.6,0,3.12,3.12,0,0,1-2-1.81,7.93,7.93,0,0,1-.57-2.74,39.36,39.36,0,0,1,0-5.32A6.83,6.83,0,0,1,89,174.4a5.58,5.58,0,0,1,2.21-2.18A9.13,9.13,0,0,1,97.86,171c1.69.4,4.38,1.95,4.65,3.9S100.15,178.76,98.63,179.23Z" transform="translate(-28.64 -34)" fill="#fc682d"></path><path d="M150.21,186.36a15.82,15.82,0,1,1-6.74-28.71l-3.75,6.21-4.22,7,11.11,6.73,4.26-7.05,3.59-5.93A15.82,15.82,0,0,1,150.21,186.36Z" transform="translate(-28.64 -34)" fill="#fff"></path><path d="M93.85,275.82a15.67,15.67,0,0,1-11,1.47l9.8-12.78L82.33,256.6,72.5,269.43l-.06-.1a15.82,15.82,0,1,1,21.41,6.49Z" transform="translate(-28.64 -34)" fill="#fff"></path></svg>